<svg xmlns="http://www.w3.org/2000/svg" width="60" height="60" viewBox="0 0 60 60">
  <g id="Group_1" data-name="Group 1" transform="translate(-193 -193)">
    <path id="check_circle_24dp_5F6368_FILL0_wght300_GRAD0_opsz24" d="M125.518-816.567,146.749-837.8l-3.328-3.328-17.9,17.9-9-9-3.328,3.328ZM130.006-800a29.227,29.227,0,0,1-11.7-2.362,30.3,30.3,0,0,1-9.527-6.411,30.3,30.3,0,0,1-6.414-9.524,29.2,29.2,0,0,1-2.363-11.7,29.226,29.226,0,0,1,2.362-11.7,30.3,30.3,0,0,1,6.411-9.527,30.3,30.3,0,0,1,9.523-6.415,29.2,29.2,0,0,1,11.7-2.363,29.227,29.227,0,0,1,11.7,2.362,30.307,30.307,0,0,1,9.527,6.411,30.3,30.3,0,0,1,6.414,9.523,29.2,29.2,0,0,1,2.363,11.7,29.226,29.226,0,0,1-2.362,11.7,30.3,30.3,0,0,1-6.411,9.527,30.3,30.3,0,0,1-9.523,6.414A29.2,29.2,0,0,1,130.006-800ZM130-804.737a24.382,24.382,0,0,0,17.921-7.342A24.382,24.382,0,0,0,155.263-830a24.382,24.382,0,0,0-7.342-17.921A24.382,24.382,0,0,0,130-855.263a24.382,24.382,0,0,0-17.921,7.342A24.382,24.382,0,0,0,104.737-830a24.382,24.382,0,0,0,7.342,17.921A24.382,24.382,0,0,0,130-804.737ZM130-830Z" transform="translate(93 1053)" fill="#fff"/>
  </g>
</svg>
