<svg xmlns="http://www.w3.org/2000/svg" width="21" height="19.577" viewBox="0 0 21 19.577"><defs><style>.a{fill:#14809f;}</style></defs><path class="a" d="M14.537,13.156l1.306,1.333a2.287,2.287,0,0,1-2.263,2.178H5.81L3.242,19.311a.77.77,0,0,1-.588.267.859.859,0,0,1-.849-.867V16.645A2.322,2.322,0,0,1,0,14.378V7.356A2.286,2.286,0,0,1,2.263,5.045H3.634V6.667H2.263a.69.69,0,0,0-.7.689v7a.708.708,0,0,0,.7.711H3.4v1.822l1.784-1.822H13.6a.709.709,0,0,0,.7-.711v-1.2h.239ZM21,2.311v7a2.321,2.321,0,0,1-1.806,2.267v2.067a1,1,0,0,1-.261.644,1.02,1.02,0,0,1-.609.222.85.85,0,0,1-.609-.266l-2.546-2.6H7.4a2.239,2.239,0,0,1-1.6-.676,2.335,2.335,0,0,1-.663-1.635V2.31A2.286,2.286,0,0,1,7.4,0H18.714a2.228,2.228,0,0,1,1.617.665A2.325,2.325,0,0,1,21,2.311ZM13.645,8.467a.348.348,0,0,0-.349-.356h-.915a.347.347,0,0,0-.348.356v.6a.347.347,0,0,0,.348.356H13.3a.347.347,0,0,0,.348-.356v-.6Zm1.806-4.111a2.066,2.066,0,0,0-.653-1.6,2.58,2.58,0,0,0-1.806-.6,2.744,2.744,0,0,0-1.72.511,1.708,1.708,0,0,0-.631,1.289.226.226,0,0,0,.217.244l1.022.023a.38.38,0,0,0,.37-.267.841.841,0,0,1,.2-.333.785.785,0,0,1,.544-.2.775.775,0,0,1,.609.244.913.913,0,0,1,.217.667,1.341,1.341,0,0,1-.2.71,1.585,1.585,0,0,1-.5.512,3.568,3.568,0,0,0-.871.8,1.407,1.407,0,0,0-.217.755.243.243,0,0,0,.261.267h1.11a.26.26,0,0,0,.261-.222,1.086,1.086,0,0,1,.108-.422,1.129,1.129,0,0,1,.414-.445,2.66,2.66,0,0,0,.914-.8,1.976,1.976,0,0,0,.349-1.133Z" transform="translate(0 -0.001)"/></svg>